# xmcd
#
# Track frame offsets: 
#        150
#        23340
#        40292
#        55350
#        69735
#        88187
#        108377
#        124352
#        152572
#        175325
#
# Disc length: 2556 seconds
#
# Revision: 2
# Processed by: cddbd v1.4PL0 Copyright (c) Steve Scherf et al.
# Submitted via: ExactAudioCopy v0.90b4
#
DISCID=8409fa0a
DTITLE=The Badloves - Get On Board
DYEAR=1993
DGENRE=Folk/Rock
TTITLE0=Memphis
TTITLE1=Green Limousine
TTITLE2=Tell Me
TTITLE3=I Remember
TTITLE4=High On A Mountain
TTITLE5=What's On Your Mind
TTITLE6=Lost
TTITLE7=Sugar Daddy
TTITLE8=Yesterday's Gone
TTITLE9=Spirit In The Sky
EXTD=
EXTT0=
EXTT1=
EXTT2=
EXTT3=
EXTT4=
EXTT5=
EXTT6=
EXTT7=
EXTT8=
EXTT9=
PLAYORDER=
